<svg width="0" height="0" class="hidden">
  <symbol fill="none" xmlns="http://www.w3.org/2000/svg" viewBox="0 0 8 8" id="dot">
    <circle cx="4" cy="4" r="4" transform="matrix(1 0 0 -1 0 8)" ></circle>
  </symbol>
  <symbol fill="none" xmlns="http://www.w3.org/2000/svg" viewBox="0 0 12 14" id="calendar">
    <path d="M4 6.3H2.66667V7.7H4V6.3ZM6.66667 6.3H5.33333V7.7H6.66667V6.3ZM9.33333 6.3H8V7.7H9.33333V6.3ZM10.6667 1.4H10V0H8.66667V1.4H3.33333V0H2V1.4H1.33333C0.593333 1.4 0.00666666 2.03 0.00666666 2.8L0 12.6C0 13.37 0.593333 14 1.33333 14H10.6667C11.4 14 12 13.37 12 12.6V2.8C12 2.03 11.4 1.4 10.6667 1.4ZM10.6667 12.6H1.33333V4.9H10.6667V12.6Z" fill="#00D7FF"></path>
  </symbol>
  <symbol fill="none" xmlns="http://www.w3.org/2000/svg" viewBox="0 0 10 10" id="clear">
    <path d="M10 1.00714L8.99286 0L5 3.99286L1.00714 0L0 1.00714L3.99286 5L0 8.99286L1.00714 10L5 6.00714L8.99286 10L10 8.99286L6.00714 5L10 1.00714Z" fill="#DB0837"></path>
  </symbol>
  <symbol fill="none" xmlns="http://www.w3.org/2000/svg" viewBox="0 0 14 10" id="done">
    <path d="M4.45455 7.91045L1.11364 4.77612L0 5.8209L4.45455 10L14 1.04478L12.8864 0L4.45455 7.91045Z" fill="#24D40C"></path>
  </symbol>
  <symbol fill="none" xmlns="http://www.w3.org/2000/svg" viewBox="0 0 8 3" id="dropdown-arrow">
    <path d="M4 3L0.535899 1.75695e-07L7.4641 -4.29987e-07L4 3Z" fill="#00D7FF"></path>
  </symbol>
  <symbol fill="none" xmlns="http://www.w3.org/2000/svg" viewBox="0 0 8 8" id="normal">
    <circle cx="4" cy="4" r="4" transform="matrix(1 0 0 -1 0 8)" fill="#24D40C"></circle>
  </symbol>
  <symbol fill="none" xmlns="http://www.w3.org/2000/svg" viewBox="0 0 16 16" id="plus">
    <path d="M1.16007 7.23988H7.23995V1.15985C7.23995 0.740426 7.58048 0.399902 8.00005 0.399902C8.41947 0.399902 8.76 0.740426 8.76 1.15985V7.23988H14.84C15.2595 7.23988 15.6 7.58041 15.6 7.99983C15.6 8.4194 15.2595 8.75992 14.84 8.75992H8.76V14.8398C8.76 15.2594 8.41947 15.5999 8.00005 15.5999C7.58048 15.5999 7.23995 15.2594 7.23995 14.8398V8.75992H1.16007C0.740499 8.75992 0.399976 8.4194 0.399976 7.99983C0.399976 7.58041 0.740499 7.23988 1.16007 7.23988Z" fill="white"></path>
  </symbol>
  <symbol fill="none" xmlns="http://www.w3.org/2000/svg" viewBox="0 0 8 8" id="hard">
    <circle cx="4" cy="4" r="4" transform="matrix(1 0 0 -1 0 8)" fill="#DB0837"></circle>
  </symbol>
  <symbol fill="none" xmlns="http://www.w3.org/2000/svg" viewBox="0 0 10 10" id="save">
    <path d="M7.77778 0H1.11111C0.494444 0 0 0.5 0 1.11111V8.88889C0 9.5 0.494444 10 1.11111 10H8.88889C9.5 10 10 9.5 10 8.88889V2.22222L7.77778 0ZM8.88889 8.88889H1.11111V1.11111H7.31667L8.88889 2.68333V8.88889ZM5 5C4.07778 5 3.33333 5.74444 3.33333 6.66667C3.33333 7.58889 4.07778 8.33333 5 8.33333C5.92222 8.33333 6.66667 7.58889 6.66667 6.66667C6.66667 5.74444 5.92222 5 5 5ZM1.66667 1.66667H6.66667V3.88889H1.66667V1.66667Z" fill="#00D7FF"></path>
  </symbol>
  <symbol fill="none" xmlns="http://www.w3.org/2000/svg" viewBox="0 0 23 23" id="star-blue">
    <g clip-path="url(#clip0_18_3821)" filter="url(#filter0_d_18_3821)">
      <path d="M18.3473 6.23302L14.2166 5.84243C13.9562 5.81876 13.7312 5.65305 13.6248 5.40449L12.1452 1.81812C11.9085 1.22632 11.068 1.22632 10.8313 1.81812L9.36359 5.40449C9.2689 5.65305 9.03217 5.81876 8.77177 5.84243L4.64091 6.23302C4.02542 6.2922 3.77686 7.06156 4.23848 7.47582L7.35142 10.21C7.55264 10.3875 7.63549 10.6479 7.57631 10.9083L6.64124 14.7431C6.49921 15.3469 7.1502 15.8439 7.69467 15.5244L11.139 13.5003C11.3639 13.3701 11.6362 13.3701 11.861 13.5003L15.3055 15.5244C15.85 15.8439 16.501 15.3587 16.3588 14.7431L15.4356 10.9083C15.3764 10.6479 15.4593 10.3875 15.6605 10.21L18.7734 7.47582C19.2232 7.06156 18.9628 6.2922 18.3473 6.23302Z" fill="#00D7FF"></path>
    </g>
    <defs>
      <filter id="filter0_d_18_3821" x="0" y="0" width="23" height="23" filterUnits="userSpaceOnUse" color-interpolation-filters="sRGB">
        <feFlood flood-opacity="0" result="BackgroundImageFix"></feFlood>
        <feColorMatrix in="SourceAlpha" type="matrix" values="0 0 0 0 0 0 0 0 0 0 0 0 0 0 0 0 0 0 127 0" result="hardAlpha"></feColorMatrix>
        <feOffset dy="3"></feOffset>
        <feGaussianBlur stdDeviation="2"></feGaussianBlur>
        <feColorMatrix type="matrix" values="0 0 0 0 0 0 0 0 0 0.843137 0 0 0 0 1 0 0 0 0.25 0"></feColorMatrix>
        <feBlend mode="normal" in2="BackgroundImageFix" result="effect1_dropShadow_18_3821"></feBlend>
        <feBlend mode="normal" in="SourceGraphic" in2="effect1_dropShadow_18_3821" result="shape"></feBlend>
      </filter>
      <clipPath id="clip0_18_3821">
        <rect width="15" height="15" fill="white" transform="translate(4 1)"></rect>
      </clipPath>
    </defs>
  </symbol>
  <symbol fill="none" xmlns="http://www.w3.org/2000/svg" viewBox="0 0 22 22" id="trophy">
    <g filter="url(#filter0_d_18_5995)">
      <path d="M17.5898 1.01044H15.7933C15.7998 0.811453 15.8034 0.611287 15.8034 0.410159C15.8034 0.18361 15.6197 0 15.3933 0H6.60684C6.38029 0 6.19669 0.18361 6.19669 0.410159C6.19669 0.611287 6.20021 0.811453 6.20673 1.01044H4.41016C4.18361 1.01044 4 1.19406 4 1.4206C4 3.25842 4.48033 4.9923 5.35245 6.303C6.21452 7.59874 7.36285 8.34194 8.60326 8.41425C8.88449 8.72027 9.18185 8.96978 9.4915 9.16012V10.9831H8.80342C7.97157 10.9831 7.29492 11.6598 7.29492 12.4916V13.1797H7.26576C7.03922 13.1797 6.85561 13.3634 6.85561 13.5898C6.85561 13.8164 7.03922 14 7.26576 14H14.7342C14.9608 14 15.1444 13.8164 15.1444 13.5898C15.1444 13.3634 14.9608 13.1797 14.7342 13.1797H14.7051V12.4916C14.7051 11.6598 14.0283 10.9831 13.1966 10.9831H12.5085V9.16012C12.8181 8.96978 13.1154 8.72027 13.3966 8.41425C14.6371 8.34194 15.7854 7.59874 16.6476 6.303C17.5197 4.9923 18 3.25842 18 1.4206C18 1.19406 17.8163 1.01044 17.5898 1.01044ZM6.0354 5.84862C5.31602 4.76746 4.89337 3.35359 4.82896 1.83076H6.25255C6.40048 3.70276 6.8399 5.43301 7.5267 6.80662C7.63608 7.02537 7.75047 7.23194 7.86914 7.42666C7.18694 7.16903 6.55557 6.63048 6.0354 5.84862ZM15.9646 5.84862C15.4444 6.63048 14.8131 7.16903 14.1309 7.42666C14.2496 7.23194 14.3639 7.02537 14.4733 6.80662C15.1601 5.43301 15.5994 3.70276 15.7475 1.83076H17.171C17.1066 3.35359 16.684 4.76746 15.9646 5.84862Z" fill="#00D7FF"></path>
    </g>
    <defs>
      <filter id="filter0_d_18_5995" x="0" y="0" width="22" height="22" filterUnits="userSpaceOnUse" color-interpolation-filters="sRGB">
        <feFlood flood-opacity="0" result="BackgroundImageFix"></feFlood>
        <feColorMatrix in="SourceAlpha" type="matrix" values="0 0 0 0 0 0 0 0 0 0 0 0 0 0 0 0 0 0 127 0" result="hardAlpha"></feColorMatrix>
        <feOffset dy="4"></feOffset>
        <feGaussianBlur stdDeviation="2"></feGaussianBlur>
        <feColorMatrix type="matrix" values="0 0 0 0 0 0 0 0 0 0.843137 0 0 0 0 1 0 0 0 0.25 0"></feColorMatrix>
        <feBlend mode="normal" in2="BackgroundImageFix" result="effect1_dropShadow_18_5995"></feBlend>
        <feBlend mode="normal" in="SourceGraphic" in2="effect1_dropShadow_18_5995" result="shape"></feBlend>
      </filter>
    </defs>
  </symbol>
</svg>