<svg width="23" height="23" viewBox="0 0 23 23" fill="none" xmlns="http://www.w3.org/2000/svg">
<g clip-path="url(#clip0_18_3821)" filter="url(#filter0_d_18_3821)">
<path d="M18.3473 6.23302L14.2166 5.84243C13.9562 5.81876 13.7312 5.65305 13.6248 5.40449L12.1452 1.81812C11.9085 1.22632 11.068 1.22632 10.8313 1.81812L9.36359 5.40449C9.2689 5.65305 9.03217 5.81876 8.77177 5.84243L4.64091 6.23302C4.02542 6.2922 3.77686 7.06156 4.23848 7.47582L7.35142 10.21C7.55264 10.3875 7.63549 10.6479 7.57631 10.9083L6.64124 14.7431C6.49921 15.3469 7.1502 15.8439 7.69467 15.5244L11.139 13.5003C11.3639 13.3701 11.6362 13.3701 11.861 13.5003L15.3055 15.5244C15.85 15.8439 16.501 15.3587 16.3588 14.7431L15.4356 10.9083C15.3764 10.6479 15.4593 10.3875 15.6605 10.21L18.7734 7.47582C19.2232 7.06156 18.9628 6.2922 18.3473 6.23302Z" fill="#00D7FF"/>
</g>
<defs>
<filter id="filter0_d_18_3821" x="0" y="0" width="23" height="23" filterUnits="userSpaceOnUse" color-interpolation-filters="sRGB">
<feFlood flood-opacity="0" result="BackgroundImageFix"/>
<feColorMatrix in="SourceAlpha" type="matrix" values="0 0 0 0 0 0 0 0 0 0 0 0 0 0 0 0 0 0 127 0" result="hardAlpha"/>
<feOffset dy="3"/>
<feGaussianBlur stdDeviation="2"/>
<feColorMatrix type="matrix" values="0 0 0 0 0 0 0 0 0 0.843137 0 0 0 0 1 0 0 0 0.25 0"/>
<feBlend mode="normal" in2="BackgroundImageFix" result="effect1_dropShadow_18_3821"/>
<feBlend mode="normal" in="SourceGraphic" in2="effect1_dropShadow_18_3821" result="shape"/>
</filter>
<clipPath id="clip0_18_3821">
<rect width="15" height="15" fill="white" transform="translate(4 1)"/>
</clipPath>
</defs>
</svg>
